<svg width="10" height="10" viewBox="0 0 10 10" fill="none" xmlns="http://www.w3.org/2000/svg">
<rect x="0.959837" y="0.692747" width="8.21333" height="8.21333" rx="4.10667" fill="white"/>
<rect x="0.959837" y="0.692747" width="8.21333" height="8.21333" rx="4.10667" stroke="#6E6E6E" stroke-width="0.586667"/>
<path fill-rule="evenodd" clip-rule="evenodd" d="M5.06669 2.59912C4.86419 2.59912 4.70003 2.76328 4.70003 2.96579V4.43247H3.23337C3.03086 4.43247 2.8667 4.59663 2.8667 4.79914C2.8667 5.00164 3.03086 5.1658 3.23337 5.1658H4.70003V6.63245C4.70003 6.83496 4.86419 6.99912 5.06669 6.99912C5.2692 6.99912 5.43336 6.83496 5.43336 6.63245V5.1658H6.90003C7.10254 5.1658 7.2667 5.00164 7.2667 4.79914C7.2667 4.59663 7.10254 4.43247 6.90003 4.43247H5.43336V2.96579C5.43336 2.76328 5.2692 2.59912 5.06669 2.59912Z" fill="#6E6E6E"/>
</svg>
