<svg width="18" height="18" viewBox="0 0 18 18" fill="none" xmlns="http://www.w3.org/2000/svg">
<g clip-path="url(#clip0_636_13170)">
<mask id="path-1-inside-1_636_13170" fill="white">
<path fill-rule="evenodd" clip-rule="evenodd" d="M15.931 12.9291C16.6521 11.7212 17.0664 10.309 17.0664 8.80007C17.0664 4.34497 13.4549 0.733398 8.99977 0.733398C4.54468 0.733398 0.933105 4.34497 0.933105 8.80007C0.933105 13.2552 4.54468 16.8667 8.99977 16.8667C10.5119 16.8667 11.9269 16.4507 13.1364 15.7268L16.9548 16.7499L15.931 12.9291Z"/>
</mask>
<path d="M15.931 12.9291L14.7976 12.2524C14.6148 12.5588 14.5637 12.9261 14.656 13.2707L15.931 12.9291ZM13.1364 15.7268L13.4781 14.4517C13.133 14.3593 12.7651 14.4106 12.4586 14.5941L13.1364 15.7268ZM16.9548 16.7499L16.6132 18.0249C17.0687 18.147 17.5547 18.0167 17.8882 17.6833C18.2217 17.3498 18.3519 16.8638 18.2298 16.4082L16.9548 16.7499ZM15.7464 8.80007C15.7464 10.0642 15.4 11.2435 14.7976 12.2524L17.0644 13.6057C17.9042 12.199 18.3864 10.5538 18.3864 8.80007H15.7464ZM8.99977 2.0534C12.7259 2.0534 15.7464 5.07398 15.7464 8.80007H18.3864C18.3864 3.61595 14.1839 -0.586602 8.99977 -0.586602V2.0534ZM2.25311 8.80007C2.25311 5.07398 5.27369 2.0534 8.99977 2.0534V-0.586602C3.81566 -0.586602 -0.386895 3.61595 -0.386895 8.80007H2.25311ZM8.99977 15.5467C5.27369 15.5467 2.25311 12.5261 2.25311 8.80007H-0.386895C-0.386895 13.9842 3.81566 18.1867 8.99977 18.1867V15.5467ZM12.4586 14.5941C11.4482 15.1988 10.2666 15.5467 8.99977 15.5467V18.1867C10.7572 18.1867 12.4056 17.7025 13.8143 16.8594L12.4586 14.5941ZM12.7948 17.0018L16.6132 18.0249L17.2965 15.4749L13.4781 14.4517L12.7948 17.0018ZM18.2298 16.4082L17.2061 12.5874L14.656 13.2707L15.6798 17.0915L18.2298 16.4082Z" fill="black" mask="url(#path-1-inside-1_636_13170)"/>
</g>
<defs>
<clipPath id="clip0_636_13170">
<rect width="17.6" height="17.6" fill="white" transform="translate(0.199707)"/>
</clipPath>
</defs>
</svg>
