<svg width="19" height="18" viewBox="0 0 19 18" fill="none" xmlns="http://www.w3.org/2000/svg">
<g clip-path="url(#clip0_636_13169)">
<path d="M9.83014 4.53449L9.35358 4.07215C9.25493 3.97645 9.16 3.88474 9.06778 3.79566C8.90659 3.63994 8.75368 3.49221 8.60361 3.34508L9.83014 4.53449ZM9.83014 4.53449L10.2896 4.05517M9.83014 4.53449L10.2896 4.05517M10.2896 4.05517C10.3953 3.9449 10.4887 3.84363 10.5765 3.74841C10.745 3.56567 10.8929 3.40522 11.0679 3.24627L11.0682 3.24604M10.2896 4.05517L11.0682 3.24604M11.0682 3.24604C12.4344 2.00381 14.2039 1.80324 15.5399 2.60662L11.0682 3.24604ZM17.2504 6.99538L17.2504 6.99521C17.6817 5.25968 16.9441 3.4516 15.54 2.60669L17.2504 6.99538ZM17.2504 6.99538C16.8413 8.64392 15.8401 9.97526 14.6234 11.2914L14.6234 11.2914M17.2504 6.99538L14.6234 11.2914M14.6234 11.2914C13.1896 12.8426 11.5291 14.1525 9.78566 15.4219C7.3928 13.6722 5.14961 11.8857 3.49606 9.50729L3.49586 9.50699M14.6234 11.2914L3.49586 9.50699M3.49586 9.50699C2.73827 8.41856 2.21845 7.31845 2.19402 6.07777L2.19402 6.07772M3.49586 9.50699L2.19402 6.07772M2.19402 6.07772C2.16169 4.44104 3.08719 2.97917 4.41728 2.40518L4.4174 2.40513M2.19402 6.07772L4.4174 2.40513M4.4174 2.40513C5.74422 1.83225 7.40028 2.16602 8.60348 3.34495L4.4174 2.40513Z" fill="#FE0135" stroke="#FE0135" stroke-width="1.32"/>
</g>
<defs>
<clipPath id="clip0_636_13169">
<rect width="17.6" height="17.6" fill="white" transform="translate(0.799805)"/>
</clipPath>
</defs>
</svg>
