<svg width="72" height="49" viewBox="0 0 72 49" fill="none" xmlns="http://www.w3.org/2000/svg">
<rect y="0.5" width="72" height="48" rx="8" fill="#1D1E1E"/>
<path d="M41 14.5H31C28.2386 14.5 26 16.7386 26 19.5V29.5C26 32.2614 28.2386 34.5 31 34.5H41C43.7614 34.5 46 32.2614 46 29.5V19.5C46 16.7386 43.7614 14.5 41 14.5Z" stroke="white" stroke-width="1.5" stroke-linecap="round" stroke-linejoin="round"/>
<path d="M39.9997 23.8698C40.1231 24.7021 39.981 25.552 39.5935 26.2988C39.206 27.0456 38.5929 27.6512 37.8413 28.0295C37.0898 28.4077 36.2382 28.5394 35.4075 28.4057C34.5768 28.2721 33.8095 27.8799 33.2145 27.285C32.6196 26.6901 32.2274 25.9227 32.0938 25.092C31.9601 24.2614 32.0918 23.4097 32.47 22.6582C32.8483 21.9067 33.4539 21.2936 34.2007 20.9061C34.9475 20.5186 35.7975 20.3764 36.6297 20.4998C37.4786 20.6257 38.2646 21.0213 38.8714 21.6281C39.4782 22.235 39.8738 23.0209 39.9997 23.8698Z" stroke="white" stroke-width="1.5" stroke-linecap="round" stroke-linejoin="round"/>
<path d="M41.5 19H41.51" stroke="white" stroke-width="2" stroke-linecap="round" stroke-linejoin="round"/>
</svg>
