<svg width="53" height="27" viewBox="0 0 53 27" fill="none" xmlns="http://www.w3.org/2000/svg">
<rect width="53" height="27" rx="8" fill="white"/>
<path d="M31.3268 6.11426H22.6738V21.6638H31.3268V6.11426Z" fill="#7375CF"/>
<path d="M23.2232 13.8891C23.2218 12.3915 23.5612 10.9133 24.2156 9.56633C24.87 8.21933 25.8222 7.03886 27.0003 6.11429C25.5414 4.9676 23.7894 4.2545 21.9444 4.05648C20.0995 3.85846 18.236 4.18351 16.567 4.99449C14.8981 5.80546 13.491 7.06963 12.5065 8.64251C11.5221 10.2154 11 12.0335 11 13.8891C11 15.7446 11.5221 17.5628 12.5065 19.1356C13.491 20.7085 14.8981 21.9727 16.567 22.7837C18.236 23.5947 20.0995 23.9197 21.9444 23.7217C23.7894 23.5237 25.5414 22.8106 27.0003 21.6639C25.8222 20.7393 24.87 19.5588 24.2156 18.2118C23.5612 16.8648 23.2218 15.3866 23.2232 13.8891Z" fill="#EB001B"/>
<path d="M42.056 20.0166V19.6983H42.1843V19.6334H41.8574V19.6983H41.9858V20.0166H42.056ZM42.6907 20.0166V19.6328H42.5904L42.4752 19.8968L42.3599 19.6328H42.2596V20.0166H42.3304V19.7271L42.4385 19.9767H42.5119L42.6199 19.7265V20.0166H42.6907Z" fill="#00A2E5"/>
<path d="M42.9997 13.8891C42.9998 15.7446 42.4778 17.5627 41.4934 19.1356C40.509 20.7085 39.1019 21.9727 37.433 22.7837C35.7641 23.5946 33.9007 23.9197 32.0557 23.7217C30.2108 23.5237 28.4588 22.8106 27 21.6639C28.177 20.7384 29.1285 19.5577 29.7828 18.2109C30.4371 16.8641 30.777 15.3864 30.777 13.8891C30.777 12.3918 30.4371 10.914 29.7828 9.56724C29.1285 8.22046 28.177 7.03979 27 6.11429C28.4588 4.9676 30.2108 4.2545 32.0557 4.05648C33.9007 3.85846 35.7641 4.18352 37.433 4.9945C39.1019 5.80548 40.509 7.06966 41.4934 8.64255C42.4778 10.2154 42.9998 12.0335 42.9997 13.8891Z" fill="#00A2E5"/>
</svg>
