<svg width="53" height="27" viewBox="0 0 53 27" fill="none" xmlns="http://www.w3.org/2000/svg">
<rect width="53" height="27" rx="8" fill="white"/>
<path d="M31.3267 6.11328H22.6738V21.6628H31.3267V6.11328Z" fill="#FF5F00"/>
<path d="M23.2232 13.889C23.2218 12.3915 23.5611 10.9133 24.2155 9.56631C24.8699 8.21932 25.8222 7.03885 27.0002 6.11428C25.5414 4.9676 23.7893 4.2545 21.9444 4.05648C20.0994 3.85846 18.236 4.18351 16.567 4.99448C14.8981 5.80545 13.491 7.06962 12.5065 8.6425C11.5221 10.2154 11 12.0335 11 13.889C11 15.7446 11.5221 17.5627 12.5065 19.1356C13.491 20.7085 14.8981 21.9726 16.567 22.7836C18.236 23.5946 20.0994 23.9196 21.9444 23.7216C23.7893 23.5236 25.5414 22.8105 27.0002 21.6638C25.8222 20.7392 24.8699 19.5588 24.2155 18.2118C23.5612 16.8648 23.2218 15.3866 23.2232 13.889Z" fill="#EB001B"/>
<path d="M42.9997 13.889C42.9998 15.7446 42.4778 17.5627 41.4934 19.1356C40.509 20.7084 39.1019 21.9726 37.433 22.7836C35.7641 23.5946 33.9007 23.9196 32.0557 23.7216C30.2108 23.5236 28.4588 22.8105 27 21.6638C28.177 20.7383 29.1285 19.5577 29.7828 18.2109C30.4371 16.8641 30.777 15.3863 30.777 13.889C30.777 12.3917 30.4371 10.914 29.7828 9.56722C29.1285 8.22044 28.177 7.03978 27 6.11428C28.4588 4.9676 30.2108 4.25449 32.0557 4.05648C33.9007 3.85846 35.7641 4.18352 37.433 4.9945C39.1019 5.80548 40.509 7.06965 41.4934 8.64253C42.4778 10.2154 42.9998 12.0335 42.9997 13.889Z" fill="#F79E1B"/>
<path d="M42.056 20.0166V19.6983H42.1843V19.6334H41.8574V19.6983H41.9858V20.0166H42.056ZM42.6907 20.0166V19.6328H42.5904L42.4752 19.8968L42.3599 19.6328H42.2596V20.0166H42.3304V19.7271L42.4385 19.9767H42.5119L42.6199 19.7265V20.0166H42.6907Z" fill="#F79E1B"/>
</svg>
