<svg width="53" height="27" viewBox="0 0 53 27" fill="none" xmlns="http://www.w3.org/2000/svg">
<rect width="53" height="27" rx="8" fill="white"/>
<path d="M36.2572 3C34.3012 3 32.6973 4.58435 32.6973 6.5599V10.2567H37.7242C37.8415 10.2567 37.9785 10.2567 38.0763 10.2763C39.2107 10.335 40.0518 10.9218 40.0518 11.9389C40.0518 12.7408 39.4846 13.4254 38.4283 13.5623V13.6015C39.5824 13.6797 40.4626 14.3252 40.4626 15.3227C40.4626 16.3985 39.4846 17.1027 38.1936 17.1027H32.6777V24.3399H37.9002C39.8562 24.3399 41.4601 22.7555 41.4601 20.7799V3H36.2572Z" fill="url(#paint0_linear_47_7218)"/>
<path d="M34.4381 15.9682H36.4919C36.5213 15.9682 36.5702 15.9633 36.6191 15.9584C36.668 15.9535 36.7169 15.9486 36.7462 15.9486C37.1374 15.8704 37.4699 15.5183 37.4699 15.0293C37.4699 14.5599 37.1374 14.2078 36.7462 14.11C36.6875 14.0904 36.5702 14.0904 36.4919 14.0904H34.4381V15.9682Z" fill="url(#paint1_linear_47_7218)"/>
<path d="M36.4919 11.3325C36.8831 11.3912 37.2156 11.7041 37.2156 12.1736C37.2156 12.643 36.8831 12.956 36.4919 13.0147C36.4724 13.0342 36.355 13.0342 36.2963 13.0342H34.4381V11.313H36.2963C36.3286 11.313 36.3728 11.3189 36.4125 11.3242C36.4449 11.3286 36.4743 11.3325 36.4919 11.3325Z" fill="url(#paint2_linear_47_7218)"/>
<path d="M16.5795 3C14.6235 3 13.0196 4.58435 13.0196 6.5599V15.3423C14.0171 15.8313 15.0538 16.1443 16.0905 16.1443C17.3227 16.1443 17.9878 15.401 17.9878 14.3839V10.2372H21.0391V14.3643C21.0391 15.9682 20.0416 17.2787 16.6577 17.2787C14.6039 17.2787 13 16.8288 13 16.8288V24.3203H18.2225C20.1785 24.3203 21.7824 22.7359 21.7824 20.7604V3H16.5795Z" fill="url(#paint3_linear_47_7218)"/>
<path d="M26.4173 3C24.4613 3 22.8574 4.58435 22.8574 6.5599V11.2152C23.7572 10.4523 25.322 9.96332 27.8452 10.0807C29.1948 10.1394 30.6423 10.511 30.6423 10.511V12.0171C29.9185 11.6455 29.0579 11.313 27.943 11.2347C26.0261 11.0978 24.8721 12.0367 24.8721 13.6797C24.8721 15.3423 26.0261 16.2812 27.943 16.1247C29.0579 16.0465 29.9185 15.6944 30.6423 15.3423V16.8484C30.6423 16.8484 29.2144 17.22 27.8452 17.2787C25.322 17.3961 23.7572 16.9071 22.8574 16.1443V24.3594H28.0799C30.0359 24.3594 31.6398 22.7751 31.6398 20.7995V3H26.4173Z" fill="url(#paint4_linear_47_7218)"/>
<defs>
<linearGradient id="paint0_linear_47_7218" x1="32.6934" y1="12.1706" x2="41.4834" y2="12.1706" gradientUnits="userSpaceOnUse">
<stop stop-color="#007940"/>
<stop offset="0.2285" stop-color="#00873F"/>
<stop offset="0.7433" stop-color="#40A737"/>
<stop offset="1" stop-color="#5CB531"/>
</linearGradient>
<linearGradient id="paint1_linear_47_7218" x1="32.6934" y1="12.1706" x2="41.4834" y2="12.1706" gradientUnits="userSpaceOnUse">
<stop stop-color="#007940"/>
<stop offset="0.2285" stop-color="#00873F"/>
<stop offset="0.7433" stop-color="#40A737"/>
<stop offset="1" stop-color="#5CB531"/>
</linearGradient>
<linearGradient id="paint2_linear_47_7218" x1="32.6934" y1="12.1706" x2="41.4834" y2="12.1706" gradientUnits="userSpaceOnUse">
<stop stop-color="#007940"/>
<stop offset="0.2285" stop-color="#00873F"/>
<stop offset="0.7433" stop-color="#40A737"/>
<stop offset="1" stop-color="#5CB531"/>
</linearGradient>
<linearGradient id="paint3_linear_47_7218" x1="13.0151" y1="13.661" x2="21.9411" y2="13.661" gradientUnits="userSpaceOnUse">
<stop stop-color="#1F286F"/>
<stop offset="0.4751" stop-color="#004E94"/>
<stop offset="0.8261" stop-color="#0066B1"/>
<stop offset="1" stop-color="#006FBC"/>
</linearGradient>
<linearGradient id="paint4_linear_47_7218" x1="22.8066" y1="13.661" x2="31.4755" y2="13.661" gradientUnits="userSpaceOnUse">
<stop stop-color="#6C2C2F"/>
<stop offset="0.1735" stop-color="#882730"/>
<stop offset="0.5731" stop-color="#BE1833"/>
<stop offset="0.8585" stop-color="#DC0436"/>
<stop offset="1" stop-color="#E60039"/>
</linearGradient>
</defs>
</svg>
