<svg width="53" height="27" viewBox="0 0 53 27" fill="none" xmlns="http://www.w3.org/2000/svg">
<rect width="53" height="27" rx="8" fill="white"/>
<path d="M26.8443 8.18254L24.7065 18.1775H22.1205L24.2586 8.18254H26.8443ZM37.723 14.6364L39.0839 10.8831L39.8672 14.6364H37.723ZM40.609 18.1775H43L40.9111 8.18254H38.7056C38.2086 8.18254 37.7895 8.47074 37.6041 8.91517L33.7242 18.1775H36.4398L36.9789 16.6848H40.2959L40.609 18.1775ZM33.8588 14.9145C33.8701 12.2766 30.2123 12.1305 30.2368 10.9519C30.2447 10.5938 30.5864 10.2123 31.3332 10.1147C31.7034 10.0671 32.7252 10.0284 33.8833 10.5621L34.3363 8.44174C33.7143 8.21671 32.9138 8 31.9177 8C29.3614 8 27.5632 9.35781 27.5489 11.3037C27.5324 12.7427 28.8334 13.545 29.8115 14.0243C30.82 14.5141 31.1578 14.8282 31.1529 15.2659C31.1459 15.9364 30.3488 16.2334 29.6065 16.2446C28.3058 16.2649 27.5518 15.8931 26.9509 15.6129L26.4815 17.8041C27.0867 18.0811 28.2017 18.322 29.3563 18.3344C32.0739 18.3344 33.8508 16.9926 33.8588 14.9145ZM23.1495 8.18254L18.9598 18.1775H16.2269L14.165 10.2008C14.04 9.7103 13.931 9.53001 13.5508 9.32274C12.929 8.98509 11.9026 8.66924 11 8.47276L11.0611 8.18254H15.461C16.0214 8.18254 16.5257 8.55549 16.654 9.20112L17.7432 14.9853L20.433 8.18254H23.1495Z" fill="#1434CB"/>
</svg>
