<svg width="72" height="48" viewBox="0 0 72 48" fill="none" xmlns="http://www.w3.org/2000/svg">
<rect width="72" height="48" rx="8" fill="#1D1E1E"/>
<path d="M36.8334 18.2472C36.5867 18.412 36.2967 18.5 36 18.5C35.6022 18.5 35.2206 18.342 34.9393 18.0607C34.658 17.7794 34.5 17.3978 34.5 17C34.5 16.7033 34.588 16.4133 34.7528 16.1666C34.9176 15.92 35.1519 15.7277 35.426 15.6142C35.7001 15.5007 36.0017 15.4709 36.2926 15.5288C36.5836 15.5867 36.8509 15.7296 37.0607 15.9393C37.2704 16.1491 37.4133 16.4164 37.4712 16.7074C37.5291 16.9983 37.4994 17.2999 37.3858 17.574C37.2723 17.8481 37.08 18.0824 36.8334 18.2472ZM35.1666 29.7528C35.4133 29.588 35.7033 29.5 36 29.5C36.3978 29.5 36.7794 29.658 37.0607 29.9393C37.342 30.2206 37.5 30.6022 37.5 31C37.5 31.2967 37.412 31.5867 37.2472 31.8334C37.0824 32.08 36.8481 32.2723 36.574 32.3858C36.2999 32.4994 35.9983 32.5291 35.7074 32.4712C35.4164 32.4133 35.1491 32.2704 34.9393 32.0607C34.7296 31.8509 34.5867 31.5836 34.5288 31.2926C34.4709 31.0017 34.5007 30.7001 34.6142 30.426C34.7277 30.1519 34.92 29.9176 35.1666 29.7528ZM35.1666 22.7528C35.4133 22.588 35.7033 22.5 36 22.5C36.3978 22.5 36.7794 22.658 37.0607 22.9393C37.342 23.2206 37.5 23.6022 37.5 24C37.5 24.2967 37.412 24.5867 37.2472 24.8334C37.0824 25.08 36.8481 25.2723 36.574 25.3858C36.2999 25.4994 35.9983 25.5291 35.7074 25.4712C35.4164 25.4133 35.1491 25.2704 34.9393 25.0607C34.7296 24.8509 34.5867 24.5836 34.5288 24.2926C34.4709 24.0017 34.5007 23.7001 34.6142 23.426C34.7277 23.1519 34.92 22.9176 35.1666 22.7528Z" fill="white" stroke="white"/>
</svg>
