<svg width="24" height="24" viewBox="0 0 24 24" fill="none" xmlns="http://www.w3.org/2000/svg">
<path d="M11.0483 2.95106C11.3463 2.02697 12.6537 2.02697 12.9517 2.95105L14.4563 7.61623C14.5897 8.03008 14.9753 8.31024 15.4102 8.30929L20.312 8.29857C21.2829 8.29645 21.6869 9.53988 20.9002 10.1089L16.9282 12.9814C16.5759 13.2362 16.4286 13.6895 16.5639 14.1028L18.0888 18.7613C18.3909 19.6841 17.3331 20.4526 16.5489 19.8802L12.5896 16.9903C12.2383 16.7339 11.7617 16.7339 11.4104 16.9903L7.45113 19.8802C6.66686 20.4526 5.60914 19.6841 5.9112 18.7613L7.43612 14.1028C7.57139 13.6895 7.4241 13.2362 7.07175 12.9814L3.09984 10.1089C2.31308 9.53988 2.71709 8.29645 3.68804 8.29857L8.58981 8.30929C9.02465 8.31024 9.41026 8.03008 9.54373 7.61623L11.0483 2.95106Z" fill="#C0C0C0"/>
</svg>
